<mxfile host="app.diagrams.net" modified="2024-04-06T15:53:53.222Z" agent="Mozilla/5.0 (Macintosh; Intel Mac OS X 10_15_7) AppleWebKit/537.36 (KHTML, like Gecko) Chrome/123.0.0.0 Safari/537.36" etag="K8pPKtnDOJoijXVouFy3" version="24.2.2" type="device">
  <diagram name="Page-1" id="-e5Nr61yLDi03Mozg54l">
    <mxGraphModel dx="1771" dy="1129" grid="1" gridSize="10" guides="1" tooltips="1" connect="1" arrows="1" fold="1" page="1" pageScale="1" pageWidth="827" pageHeight="1169" math="0" shadow="0">
      <root>
        <mxCell id="0" />
        <mxCell id="1" parent="0" />
        <mxCell id="lveurod9TtLe9vHSPx2q-21" style="edgeStyle=orthogonalEdgeStyle;rounded=0;orthogonalLoop=1;jettySize=auto;html=1;entryX=0;entryY=0.5;entryDx=0;entryDy=0;endArrow=none;endFill=0;" parent="1" source="lveurod9TtLe9vHSPx2q-1" target="lveurod9TtLe9vHSPx2q-20" edge="1">
          <mxGeometry relative="1" as="geometry" />
        </mxCell>
        <mxCell id="lveurod9TtLe9vHSPx2q-1" value="Player" style="rounded=0;whiteSpace=wrap;html=1;" parent="1" vertex="1">
          <mxGeometry x="538.5" y="380" width="80" height="50" as="geometry" />
        </mxCell>
        <mxCell id="lveurod9TtLe9vHSPx2q-2" value="name" style="ellipse;whiteSpace=wrap;html=1;" parent="1" vertex="1">
          <mxGeometry x="448.5" y="350" width="60" height="40" as="geometry" />
        </mxCell>
        <mxCell id="lveurod9TtLe9vHSPx2q-7" value="" style="endArrow=none;html=1;rounded=0;exitX=1;exitY=0.5;exitDx=0;exitDy=0;entryX=0;entryY=0;entryDx=0;entryDy=0;" parent="1" source="lveurod9TtLe9vHSPx2q-2" target="lveurod9TtLe9vHSPx2q-1" edge="1">
          <mxGeometry width="50" height="50" relative="1" as="geometry">
            <mxPoint x="498.5" y="430" as="sourcePoint" />
            <mxPoint x="548.5" y="380" as="targetPoint" />
          </mxGeometry>
        </mxCell>
        <mxCell id="lveurod9TtLe9vHSPx2q-8" value="age" style="ellipse;whiteSpace=wrap;html=1;" parent="1" vertex="1">
          <mxGeometry x="458.5" y="300" width="60" height="40" as="geometry" />
        </mxCell>
        <mxCell id="lveurod9TtLe9vHSPx2q-9" value="" style="endArrow=none;html=1;rounded=0;entryX=0.25;entryY=0;entryDx=0;entryDy=0;exitX=0.906;exitY=0.736;exitDx=0;exitDy=0;exitPerimeter=0;" parent="1" target="lveurod9TtLe9vHSPx2q-1" edge="1" source="lveurod9TtLe9vHSPx2q-8">
          <mxGeometry width="50" height="50" relative="1" as="geometry">
            <mxPoint x="537.5" y="329" as="sourcePoint" />
            <mxPoint x="557.5" y="379" as="targetPoint" />
          </mxGeometry>
        </mxCell>
        <mxCell id="lveurod9TtLe9vHSPx2q-11" value="height" style="ellipse;whiteSpace=wrap;html=1;" parent="1" vertex="1">
          <mxGeometry x="388.5" y="490" width="60" height="40" as="geometry" />
        </mxCell>
        <mxCell id="lveurod9TtLe9vHSPx2q-12" value="weight" style="ellipse;whiteSpace=wrap;html=1;" parent="1" vertex="1">
          <mxGeometry x="484" y="460" width="60" height="40" as="geometry" />
        </mxCell>
        <mxCell id="lveurod9TtLe9vHSPx2q-13" value="nationality" style="ellipse;whiteSpace=wrap;html=1;" parent="1" vertex="1">
          <mxGeometry x="653" y="450" width="70" height="40" as="geometry" />
        </mxCell>
        <mxCell id="lveurod9TtLe9vHSPx2q-15" value="" style="endArrow=none;html=1;rounded=0;entryX=0;entryY=1;entryDx=0;entryDy=0;exitX=0.751;exitY=0.035;exitDx=0;exitDy=0;exitPerimeter=0;" parent="1" source="lveurod9TtLe9vHSPx2q-11" target="lveurod9TtLe9vHSPx2q-1" edge="1">
          <mxGeometry width="50" height="50" relative="1" as="geometry">
            <mxPoint x="498.5" y="420" as="sourcePoint" />
            <mxPoint x="548.5" y="370" as="targetPoint" />
          </mxGeometry>
        </mxCell>
        <mxCell id="lveurod9TtLe9vHSPx2q-16" value="" style="endArrow=none;html=1;rounded=0;exitX=0.701;exitY=0.077;exitDx=0;exitDy=0;exitPerimeter=0;" parent="1" source="lveurod9TtLe9vHSPx2q-12" edge="1">
          <mxGeometry width="50" height="50" relative="1" as="geometry">
            <mxPoint x="518.5" y="460" as="sourcePoint" />
            <mxPoint x="558.5" y="430" as="targetPoint" />
          </mxGeometry>
        </mxCell>
        <mxCell id="lveurod9TtLe9vHSPx2q-17" value="" style="endArrow=none;html=1;rounded=0;exitX=0.263;exitY=0.035;exitDx=0;exitDy=0;entryX=1;entryY=1;entryDx=0;entryDy=0;exitPerimeter=0;" parent="1" source="lveurod9TtLe9vHSPx2q-13" target="lveurod9TtLe9vHSPx2q-1" edge="1">
          <mxGeometry width="50" height="50" relative="1" as="geometry">
            <mxPoint x="553.5" y="490" as="sourcePoint" />
            <mxPoint x="578.5" y="430" as="targetPoint" />
          </mxGeometry>
        </mxCell>
        <mxCell id="lveurod9TtLe9vHSPx2q-22" style="edgeStyle=orthogonalEdgeStyle;rounded=0;orthogonalLoop=1;jettySize=auto;html=1;entryX=1;entryY=0.5;entryDx=0;entryDy=0;endArrow=none;endFill=0;" parent="1" source="lveurod9TtLe9vHSPx2q-19" target="lveurod9TtLe9vHSPx2q-20" edge="1">
          <mxGeometry relative="1" as="geometry" />
        </mxCell>
        <mxCell id="lveurod9TtLe9vHSPx2q-19" value="Club" style="rounded=0;whiteSpace=wrap;html=1;" parent="1" vertex="1">
          <mxGeometry x="778.5" y="380" width="80" height="50" as="geometry" />
        </mxCell>
        <mxCell id="lveurod9TtLe9vHSPx2q-20" value="belongs to" style="rhombus;whiteSpace=wrap;html=1;" parent="1" vertex="1">
          <mxGeometry x="668.5" y="370" width="70" height="70" as="geometry" />
        </mxCell>
        <mxCell id="lveurod9TtLe9vHSPx2q-23" value="1" style="text;html=1;align=center;verticalAlign=middle;whiteSpace=wrap;rounded=0;" parent="1" vertex="1">
          <mxGeometry x="738.5" y="380" width="60" height="30" as="geometry" />
        </mxCell>
        <mxCell id="lveurod9TtLe9vHSPx2q-24" value="N" style="text;html=1;align=center;verticalAlign=middle;whiteSpace=wrap;rounded=0;" parent="1" vertex="1">
          <mxGeometry x="601.5" y="380" width="60" height="30" as="geometry" />
        </mxCell>
        <mxCell id="lveurod9TtLe9vHSPx2q-25" value="name" style="ellipse;whiteSpace=wrap;html=1;" parent="1" vertex="1">
          <mxGeometry x="718.5" y="320" width="60" height="40" as="geometry" />
        </mxCell>
        <mxCell id="lveurod9TtLe9vHSPx2q-26" value="" style="endArrow=none;html=1;rounded=0;entryX=0.75;entryY=0;entryDx=0;entryDy=0;exitX=1;exitY=1;exitDx=0;exitDy=0;" parent="1" source="lveurod9TtLe9vHSPx2q-25" target="lveurod9TtLe9vHSPx2q-23" edge="1">
          <mxGeometry width="50" height="50" relative="1" as="geometry">
            <mxPoint x="758.5" y="460" as="sourcePoint" />
            <mxPoint x="808.5" y="410" as="targetPoint" />
          </mxGeometry>
        </mxCell>
        <mxCell id="lveurod9TtLe9vHSPx2q-27" value="&lt;u&gt;id&lt;/u&gt;" style="ellipse;whiteSpace=wrap;html=1;" parent="1" vertex="1">
          <mxGeometry x="633.5" y="330" width="60" height="40" as="geometry" />
        </mxCell>
        <mxCell id="lveurod9TtLe9vHSPx2q-28" value="" style="endArrow=none;html=1;rounded=0;exitX=0.25;exitY=0;exitDx=0;exitDy=0;entryX=0.274;entryY=0.945;entryDx=0;entryDy=0;entryPerimeter=0;" parent="1" source="lveurod9TtLe9vHSPx2q-24" target="lveurod9TtLe9vHSPx2q-27" edge="1">
          <mxGeometry width="50" height="50" relative="1" as="geometry">
            <mxPoint x="758.5" y="460" as="sourcePoint" />
            <mxPoint x="808.5" y="410" as="targetPoint" />
          </mxGeometry>
        </mxCell>
        <mxCell id="lveurod9TtLe9vHSPx2q-30" style="edgeStyle=orthogonalEdgeStyle;rounded=0;orthogonalLoop=1;jettySize=auto;html=1;entryX=0.5;entryY=1;entryDx=0;entryDy=0;endArrow=none;endFill=0;exitX=1;exitY=0.5;exitDx=0;exitDy=0;" parent="1" source="lveurod9TtLe9vHSPx2q-36" target="lveurod9TtLe9vHSPx2q-1" edge="1">
          <mxGeometry relative="1" as="geometry">
            <mxPoint x="381.5" y="520" as="sourcePoint" />
          </mxGeometry>
        </mxCell>
        <mxCell id="lveurod9TtLe9vHSPx2q-31" value="Outfield_Player" style="rounded=0;whiteSpace=wrap;html=1;" parent="1" vertex="1">
          <mxGeometry x="458.5" y="615" width="100" height="50" as="geometry" />
        </mxCell>
        <mxCell id="lveurod9TtLe9vHSPx2q-35" style="edgeStyle=orthogonalEdgeStyle;rounded=0;orthogonalLoop=1;jettySize=auto;html=1;endArrow=none;endFill=0;" parent="1" source="lveurod9TtLe9vHSPx2q-34" target="lveurod9TtLe9vHSPx2q-19" edge="1">
          <mxGeometry relative="1" as="geometry" />
        </mxCell>
        <mxCell id="lveurod9TtLe9vHSPx2q-34" value="&lt;u&gt;id&lt;/u&gt;" style="ellipse;whiteSpace=wrap;html=1;" parent="1" vertex="1">
          <mxGeometry x="798.5" y="320" width="60" height="40" as="geometry" />
        </mxCell>
        <mxCell id="lveurod9TtLe9vHSPx2q-36" value="&lt;div&gt;&lt;br&gt;&lt;/div&gt;is a" style="triangle;whiteSpace=wrap;html=1;direction=north;rounded=0;" parent="1" vertex="1">
          <mxGeometry x="538.5" y="520" width="80" height="60" as="geometry" />
        </mxCell>
        <mxCell id="lveurod9TtLe9vHSPx2q-38" value="&lt;font style=&quot;font-size: 10px;&quot;&gt;&lt;b&gt;disjoint&lt;/b&gt;&lt;/font&gt;" style="text;html=1;align=center;verticalAlign=middle;whiteSpace=wrap;rounded=0;" parent="1" vertex="1">
          <mxGeometry x="588.5" y="510" width="60" height="30" as="geometry" />
        </mxCell>
        <mxCell id="lveurod9TtLe9vHSPx2q-39" value="Goalkeeper" style="rounded=0;whiteSpace=wrap;html=1;" parent="1" vertex="1">
          <mxGeometry x="611.5" y="620" width="100" height="50" as="geometry" />
        </mxCell>
        <mxCell id="lveurod9TtLe9vHSPx2q-40" value="" style="endArrow=none;html=1;rounded=0;exitX=0.5;exitY=0;exitDx=0;exitDy=0;entryX=0;entryY=0.25;entryDx=0;entryDy=0;" parent="1" source="lveurod9TtLe9vHSPx2q-31" target="lveurod9TtLe9vHSPx2q-36" edge="1">
          <mxGeometry width="50" height="50" relative="1" as="geometry">
            <mxPoint x="321.5" y="630" as="sourcePoint" />
            <mxPoint x="371.5" y="580" as="targetPoint" />
          </mxGeometry>
        </mxCell>
        <mxCell id="lveurod9TtLe9vHSPx2q-41" value="" style="endArrow=none;html=1;rounded=0;entryX=0.5;entryY=0;entryDx=0;entryDy=0;exitX=0;exitY=0.75;exitDx=0;exitDy=0;" parent="1" source="lveurod9TtLe9vHSPx2q-36" target="lveurod9TtLe9vHSPx2q-39" edge="1">
          <mxGeometry width="50" height="50" relative="1" as="geometry">
            <mxPoint x="361.5" y="690" as="sourcePoint" />
            <mxPoint x="411.5" y="640" as="targetPoint" />
          </mxGeometry>
        </mxCell>
        <mxCell id="lveurod9TtLe9vHSPx2q-58" value="Technical_Att" style="rounded=0;whiteSpace=wrap;html=1;" parent="1" vertex="1">
          <mxGeometry x="188.5" y="690" width="100" height="50" as="geometry" />
        </mxCell>
        <mxCell id="BPTk4Z4PryNuK3dZAGBa-21" style="edgeStyle=orthogonalEdgeStyle;rounded=0;orthogonalLoop=1;jettySize=auto;html=1;exitX=0.5;exitY=0;exitDx=0;exitDy=0;entryX=0.5;entryY=1;entryDx=0;entryDy=0;endArrow=none;endFill=0;" edge="1" parent="1" source="lveurod9TtLe9vHSPx2q-59" target="lveurod9TtLe9vHSPx2q-67">
          <mxGeometry relative="1" as="geometry">
            <Array as="points">
              <mxPoint x="737" y="860" />
              <mxPoint x="661" y="860" />
            </Array>
          </mxGeometry>
        </mxCell>
        <mxCell id="lveurod9TtLe9vHSPx2q-59" value="Physical_Att" style="rounded=0;whiteSpace=wrap;html=1;" parent="1" vertex="1">
          <mxGeometry x="687" y="950" width="100" height="50" as="geometry" />
        </mxCell>
        <mxCell id="BPTk4Z4PryNuK3dZAGBa-20" style="edgeStyle=orthogonalEdgeStyle;rounded=0;orthogonalLoop=1;jettySize=auto;html=1;exitX=1;exitY=0.5;exitDx=0;exitDy=0;entryX=0.5;entryY=1;entryDx=0;entryDy=0;endArrow=none;endFill=0;" edge="1" parent="1" source="lveurod9TtLe9vHSPx2q-63" target="vzFSnmXwqkyDsA1X07gd-64">
          <mxGeometry relative="1" as="geometry" />
        </mxCell>
        <mxCell id="lveurod9TtLe9vHSPx2q-63" value="Mental_Att" style="rounded=0;whiteSpace=wrap;html=1;" parent="1" vertex="1">
          <mxGeometry x="311" y="930" width="100" height="50" as="geometry" />
        </mxCell>
        <mxCell id="lveurod9TtLe9vHSPx2q-65" value="Gk_Technical_Att" style="rounded=0;whiteSpace=wrap;html=1;" parent="1" vertex="1">
          <mxGeometry x="951.5" y="975" width="100" height="50" as="geometry" />
        </mxCell>
        <mxCell id="lveurod9TtLe9vHSPx2q-66" value="Goalkeeping_Att" style="rounded=0;whiteSpace=wrap;html=1;" parent="1" vertex="1">
          <mxGeometry x="975" y="675" width="100" height="50" as="geometry" />
        </mxCell>
        <mxCell id="lveurod9TtLe9vHSPx2q-68" style="edgeStyle=orthogonalEdgeStyle;rounded=0;orthogonalLoop=1;jettySize=auto;html=1;entryX=0.5;entryY=1;entryDx=0;entryDy=0;endArrow=none;endFill=0;exitX=0.5;exitY=0;exitDx=0;exitDy=0;" parent="1" source="lveurod9TtLe9vHSPx2q-67" target="lveurod9TtLe9vHSPx2q-39" edge="1">
          <mxGeometry relative="1" as="geometry">
            <Array as="points">
              <mxPoint x="660" y="745" />
              <mxPoint x="660" y="670" />
            </Array>
          </mxGeometry>
        </mxCell>
        <mxCell id="BPTk4Z4PryNuK3dZAGBa-26" style="edgeStyle=orthogonalEdgeStyle;rounded=0;orthogonalLoop=1;jettySize=auto;html=1;exitX=0;exitY=1;exitDx=0;exitDy=0;entryX=1;entryY=0.75;entryDx=0;entryDy=0;endArrow=none;endFill=0;" edge="1" parent="1" source="lveurod9TtLe9vHSPx2q-67" target="lveurod9TtLe9vHSPx2q-63">
          <mxGeometry relative="1" as="geometry">
            <Array as="points">
              <mxPoint x="560" y="798" />
              <mxPoint x="560" y="968" />
            </Array>
          </mxGeometry>
        </mxCell>
        <mxCell id="lveurod9TtLe9vHSPx2q-67" value="contains" style="rhombus;whiteSpace=wrap;html=1;" parent="1" vertex="1">
          <mxGeometry x="626" y="745" width="70" height="70" as="geometry" />
        </mxCell>
        <mxCell id="vzFSnmXwqkyDsA1X07gd-1" value="corners" style="ellipse;whiteSpace=wrap;html=1;" parent="1" vertex="1">
          <mxGeometry x="288.5" y="550" width="60" height="40" as="geometry" />
        </mxCell>
        <mxCell id="vzFSnmXwqkyDsA1X07gd-2" value="crossing" style="ellipse;whiteSpace=wrap;html=1;" parent="1" vertex="1">
          <mxGeometry x="228.5" y="585" width="70" height="40" as="geometry" />
        </mxCell>
        <mxCell id="vzFSnmXwqkyDsA1X07gd-3" value="dirbbling" style="ellipse;whiteSpace=wrap;html=1;" parent="1" vertex="1">
          <mxGeometry x="148.5" y="585" width="70" height="40" as="geometry" />
        </mxCell>
        <mxCell id="vzFSnmXwqkyDsA1X07gd-4" value="finishing" style="ellipse;whiteSpace=wrap;html=1;" parent="1" vertex="1">
          <mxGeometry x="188.5" y="540" width="70" height="40" as="geometry" />
        </mxCell>
        <mxCell id="vzFSnmXwqkyDsA1X07gd-5" value="first_touch" style="ellipse;whiteSpace=wrap;html=1;" parent="1" vertex="1">
          <mxGeometry x="68.5" y="570" width="70" height="40" as="geometry" />
        </mxCell>
        <mxCell id="vzFSnmXwqkyDsA1X07gd-6" value="free_kick" style="ellipse;whiteSpace=wrap;html=1;" parent="1" vertex="1">
          <mxGeometry x="78.5" y="630" width="70" height="40" as="geometry" />
        </mxCell>
        <mxCell id="vzFSnmXwqkyDsA1X07gd-7" value="heading" style="ellipse;whiteSpace=wrap;html=1;" parent="1" vertex="1">
          <mxGeometry x="28.5" y="670" width="70" height="40" as="geometry" />
        </mxCell>
        <mxCell id="vzFSnmXwqkyDsA1X07gd-8" value="long_shot" style="ellipse;whiteSpace=wrap;html=1;" parent="1" vertex="1">
          <mxGeometry x="78.5" y="710" width="70" height="40" as="geometry" />
        </mxCell>
        <mxCell id="vzFSnmXwqkyDsA1X07gd-9" value="long_throw" style="ellipse;whiteSpace=wrap;html=1;" parent="1" vertex="1">
          <mxGeometry x="58.5" y="760" width="70" height="40" as="geometry" />
        </mxCell>
        <mxCell id="vzFSnmXwqkyDsA1X07gd-10" value="marking" style="ellipse;whiteSpace=wrap;html=1;" parent="1" vertex="1">
          <mxGeometry x="138.5" y="780" width="70" height="40" as="geometry" />
        </mxCell>
        <mxCell id="vzFSnmXwqkyDsA1X07gd-11" value="passing" style="ellipse;whiteSpace=wrap;html=1;" parent="1" vertex="1">
          <mxGeometry x="308.5" y="650" width="70" height="40" as="geometry" />
        </mxCell>
        <mxCell id="vzFSnmXwqkyDsA1X07gd-12" value="penalty" style="ellipse;whiteSpace=wrap;html=1;" parent="1" vertex="1">
          <mxGeometry x="258.5" y="770" width="70" height="40" as="geometry" />
        </mxCell>
        <mxCell id="vzFSnmXwqkyDsA1X07gd-13" value="tackling" style="ellipse;whiteSpace=wrap;html=1;" parent="1" vertex="1">
          <mxGeometry x="201" y="820" width="70" height="40" as="geometry" />
        </mxCell>
        <mxCell id="vzFSnmXwqkyDsA1X07gd-14" value="technique" style="ellipse;whiteSpace=wrap;html=1;" parent="1" vertex="1">
          <mxGeometry x="308.5" y="600" width="70" height="40" as="geometry" />
        </mxCell>
        <mxCell id="vzFSnmXwqkyDsA1X07gd-17" value="" style="endArrow=none;html=1;rounded=0;entryX=0.083;entryY=0.774;entryDx=0;entryDy=0;entryPerimeter=0;exitX=1;exitY=0.25;exitDx=0;exitDy=0;" parent="1" source="lveurod9TtLe9vHSPx2q-58" target="vzFSnmXwqkyDsA1X07gd-11" edge="1">
          <mxGeometry width="50" height="50" relative="1" as="geometry">
            <mxPoint x="248.5" y="720" as="sourcePoint" />
            <mxPoint x="298.5" y="670" as="targetPoint" />
          </mxGeometry>
        </mxCell>
        <mxCell id="vzFSnmXwqkyDsA1X07gd-18" value="" style="endArrow=none;html=1;rounded=0;entryX=0;entryY=1;entryDx=0;entryDy=0;exitX=1;exitY=0;exitDx=0;exitDy=0;" parent="1" source="lveurod9TtLe9vHSPx2q-58" target="vzFSnmXwqkyDsA1X07gd-14" edge="1">
          <mxGeometry width="50" height="50" relative="1" as="geometry">
            <mxPoint x="282.5" y="690" as="sourcePoint" />
            <mxPoint x="308.5" y="668" as="targetPoint" />
          </mxGeometry>
        </mxCell>
        <mxCell id="vzFSnmXwqkyDsA1X07gd-19" value="" style="endArrow=none;html=1;rounded=0;entryX=0.324;entryY=1.012;entryDx=0;entryDy=0;exitX=0.954;exitY=0.001;exitDx=0;exitDy=0;entryPerimeter=0;exitPerimeter=0;" parent="1" source="lveurod9TtLe9vHSPx2q-58" target="vzFSnmXwqkyDsA1X07gd-1" edge="1">
          <mxGeometry width="50" height="50" relative="1" as="geometry">
            <mxPoint x="298.5" y="700" as="sourcePoint" />
            <mxPoint x="328.5" y="644" as="targetPoint" />
          </mxGeometry>
        </mxCell>
        <mxCell id="vzFSnmXwqkyDsA1X07gd-20" value="" style="endArrow=none;html=1;rounded=0;entryX=0.5;entryY=1;entryDx=0;entryDy=0;exitX=0.75;exitY=0;exitDx=0;exitDy=0;" parent="1" source="lveurod9TtLe9vHSPx2q-58" target="vzFSnmXwqkyDsA1X07gd-2" edge="1">
          <mxGeometry width="50" height="50" relative="1" as="geometry">
            <mxPoint x="298.5" y="700" as="sourcePoint" />
            <mxPoint x="328.5" y="644" as="targetPoint" />
          </mxGeometry>
        </mxCell>
        <mxCell id="vzFSnmXwqkyDsA1X07gd-21" value="" style="endArrow=none;html=1;rounded=0;entryX=0.5;entryY=1;entryDx=0;entryDy=0;exitX=0.41;exitY=-0.002;exitDx=0;exitDy=0;exitPerimeter=0;" parent="1" source="lveurod9TtLe9vHSPx2q-58" target="vzFSnmXwqkyDsA1X07gd-4" edge="1">
          <mxGeometry width="50" height="50" relative="1" as="geometry">
            <mxPoint x="240" y="430" as="sourcePoint" />
            <mxPoint x="295" y="385" as="targetPoint" />
          </mxGeometry>
        </mxCell>
        <mxCell id="vzFSnmXwqkyDsA1X07gd-22" value="" style="endArrow=none;html=1;rounded=0;entryX=0.734;entryY=0.972;entryDx=0;entryDy=0;exitX=0.314;exitY=-0.023;exitDx=0;exitDy=0;entryPerimeter=0;exitPerimeter=0;" parent="1" source="lveurod9TtLe9vHSPx2q-58" target="vzFSnmXwqkyDsA1X07gd-3" edge="1">
          <mxGeometry width="50" height="50" relative="1" as="geometry">
            <mxPoint x="295" y="450" as="sourcePoint" />
            <mxPoint x="295" y="385" as="targetPoint" />
          </mxGeometry>
        </mxCell>
        <mxCell id="vzFSnmXwqkyDsA1X07gd-23" value="" style="endArrow=none;html=1;rounded=0;entryX=1;entryY=1;entryDx=0;entryDy=0;exitX=0.176;exitY=0.002;exitDx=0;exitDy=0;exitPerimeter=0;" parent="1" source="lveurod9TtLe9vHSPx2q-58" target="vzFSnmXwqkyDsA1X07gd-5" edge="1">
          <mxGeometry width="50" height="50" relative="1" as="geometry">
            <mxPoint x="229.5" y="699" as="sourcePoint" />
            <mxPoint x="209.5" y="634" as="targetPoint" />
          </mxGeometry>
        </mxCell>
        <mxCell id="vzFSnmXwqkyDsA1X07gd-24" value="" style="endArrow=none;html=1;rounded=0;entryX=0.975;entryY=0.722;entryDx=0;entryDy=0;exitX=0;exitY=0;exitDx=0;exitDy=0;entryPerimeter=0;" parent="1" source="lveurod9TtLe9vHSPx2q-58" target="vzFSnmXwqkyDsA1X07gd-6" edge="1">
          <mxGeometry width="50" height="50" relative="1" as="geometry">
            <mxPoint x="229.5" y="699" as="sourcePoint" />
            <mxPoint x="209.5" y="634" as="targetPoint" />
          </mxGeometry>
        </mxCell>
        <mxCell id="vzFSnmXwqkyDsA1X07gd-25" value="" style="endArrow=none;html=1;rounded=0;entryX=1;entryY=0.5;entryDx=0;entryDy=0;exitX=0;exitY=0.25;exitDx=0;exitDy=0;" parent="1" source="lveurod9TtLe9vHSPx2q-58" target="vzFSnmXwqkyDsA1X07gd-7" edge="1">
          <mxGeometry width="50" height="50" relative="1" as="geometry">
            <mxPoint x="198.5" y="700" as="sourcePoint" />
            <mxPoint x="156.5" y="669" as="targetPoint" />
          </mxGeometry>
        </mxCell>
        <mxCell id="vzFSnmXwqkyDsA1X07gd-26" value="" style="endArrow=none;html=1;rounded=0;entryX=0.5;entryY=0;entryDx=0;entryDy=0;exitX=0.87;exitY=1.027;exitDx=0;exitDy=0;exitPerimeter=0;" parent="1" source="lveurod9TtLe9vHSPx2q-58" target="vzFSnmXwqkyDsA1X07gd-12" edge="1">
          <mxGeometry width="50" height="50" relative="1" as="geometry">
            <mxPoint x="298.5" y="713" as="sourcePoint" />
            <mxPoint x="324.5" y="691" as="targetPoint" />
          </mxGeometry>
        </mxCell>
        <mxCell id="vzFSnmXwqkyDsA1X07gd-27" value="" style="endArrow=none;html=1;rounded=0;entryX=0.5;entryY=0;entryDx=0;entryDy=0;exitX=0.5;exitY=1;exitDx=0;exitDy=0;" parent="1" source="lveurod9TtLe9vHSPx2q-58" target="vzFSnmXwqkyDsA1X07gd-13" edge="1">
          <mxGeometry width="50" height="50" relative="1" as="geometry">
            <mxPoint x="307" y="501" as="sourcePoint" />
            <mxPoint x="325" y="530" as="targetPoint" />
          </mxGeometry>
        </mxCell>
        <mxCell id="vzFSnmXwqkyDsA1X07gd-28" value="" style="endArrow=none;html=1;rounded=0;exitX=0.145;exitY=1.015;exitDx=0;exitDy=0;exitPerimeter=0;" parent="1" source="lveurod9TtLe9vHSPx2q-58" target="vzFSnmXwqkyDsA1X07gd-10" edge="1">
          <mxGeometry width="50" height="50" relative="1" as="geometry">
            <mxPoint x="248.5" y="750" as="sourcePoint" />
            <mxPoint x="243.5" y="820" as="targetPoint" />
          </mxGeometry>
        </mxCell>
        <mxCell id="vzFSnmXwqkyDsA1X07gd-29" value="" style="endArrow=none;html=1;rounded=0;exitX=0;exitY=1;exitDx=0;exitDy=0;entryX=1;entryY=0.5;entryDx=0;entryDy=0;" parent="1" source="lveurod9TtLe9vHSPx2q-58" target="vzFSnmXwqkyDsA1X07gd-9" edge="1">
          <mxGeometry width="50" height="50" relative="1" as="geometry">
            <mxPoint x="213.5" y="751" as="sourcePoint" />
            <mxPoint x="193.5" y="791" as="targetPoint" />
          </mxGeometry>
        </mxCell>
        <mxCell id="vzFSnmXwqkyDsA1X07gd-30" value="" style="endArrow=none;html=1;rounded=0;exitX=0;exitY=0.75;exitDx=0;exitDy=0;entryX=1;entryY=0.5;entryDx=0;entryDy=0;" parent="1" source="lveurod9TtLe9vHSPx2q-58" target="vzFSnmXwqkyDsA1X07gd-8" edge="1">
          <mxGeometry width="50" height="50" relative="1" as="geometry">
            <mxPoint x="198.5" y="750" as="sourcePoint" />
            <mxPoint x="138.5" y="790" as="targetPoint" />
          </mxGeometry>
        </mxCell>
        <mxCell id="vzFSnmXwqkyDsA1X07gd-31" value="agression" style="ellipse;whiteSpace=wrap;html=1;" parent="1" vertex="1">
          <mxGeometry x="271" y="880" width="70" height="40" as="geometry" />
        </mxCell>
        <mxCell id="vzFSnmXwqkyDsA1X07gd-32" value="" style="endArrow=none;html=1;rounded=0;entryX=0.25;entryY=0;entryDx=0;entryDy=0;exitX=1;exitY=1;exitDx=0;exitDy=0;" parent="1" source="vzFSnmXwqkyDsA1X07gd-31" target="lveurod9TtLe9vHSPx2q-63" edge="1">
          <mxGeometry width="50" height="50" relative="1" as="geometry">
            <mxPoint x="289.25" y="800" as="sourcePoint" />
            <mxPoint x="339.25" y="750" as="targetPoint" />
          </mxGeometry>
        </mxCell>
        <mxCell id="vzFSnmXwqkyDsA1X07gd-33" value="anticipation" style="ellipse;whiteSpace=wrap;html=1;" parent="1" vertex="1">
          <mxGeometry x="211" y="910" width="70" height="40" as="geometry" />
        </mxCell>
        <mxCell id="vzFSnmXwqkyDsA1X07gd-34" value="" style="endArrow=none;html=1;rounded=0;entryX=0;entryY=0.25;entryDx=0;entryDy=0;exitX=0.979;exitY=0.655;exitDx=0;exitDy=0;exitPerimeter=0;" parent="1" source="vzFSnmXwqkyDsA1X07gd-33" target="lveurod9TtLe9vHSPx2q-63" edge="1">
          <mxGeometry width="50" height="50" relative="1" as="geometry">
            <mxPoint x="341" y="924" as="sourcePoint" />
            <mxPoint x="346" y="940" as="targetPoint" />
          </mxGeometry>
        </mxCell>
        <mxCell id="vzFSnmXwqkyDsA1X07gd-35" value="bravery" style="ellipse;whiteSpace=wrap;html=1;" parent="1" vertex="1">
          <mxGeometry x="157.5" y="950" width="70" height="40" as="geometry" />
        </mxCell>
        <mxCell id="vzFSnmXwqkyDsA1X07gd-36" value="" style="endArrow=none;html=1;rounded=0;entryX=0;entryY=0.5;entryDx=0;entryDy=0;exitX=0.997;exitY=0.335;exitDx=0;exitDy=0;exitPerimeter=0;" parent="1" target="lveurod9TtLe9vHSPx2q-63" edge="1">
          <mxGeometry width="50" height="50" relative="1" as="geometry">
            <mxPoint x="230.78999999999996" y="963.4000000000001" as="sourcePoint" />
            <mxPoint x="321" y="803" as="targetPoint" />
          </mxGeometry>
        </mxCell>
        <mxCell id="vzFSnmXwqkyDsA1X07gd-37" value="composure" style="ellipse;whiteSpace=wrap;html=1;" parent="1" vertex="1">
          <mxGeometry x="221" y="980" width="70" height="40" as="geometry" />
        </mxCell>
        <mxCell id="vzFSnmXwqkyDsA1X07gd-38" value="" style="endArrow=none;html=1;rounded=0;entryX=0;entryY=0.75;entryDx=0;entryDy=0;" parent="1" source="vzFSnmXwqkyDsA1X07gd-37" target="lveurod9TtLe9vHSPx2q-63" edge="1">
          <mxGeometry width="50" height="50" relative="1" as="geometry">
            <mxPoint x="278.25" y="746" as="sourcePoint" />
            <mxPoint x="309.25" y="753" as="targetPoint" />
          </mxGeometry>
        </mxCell>
        <mxCell id="vzFSnmXwqkyDsA1X07gd-39" value="concentration" style="ellipse;whiteSpace=wrap;html=1;" parent="1" vertex="1">
          <mxGeometry x="216" y="1030" width="80" height="40" as="geometry" />
        </mxCell>
        <mxCell id="vzFSnmXwqkyDsA1X07gd-40" value="" style="endArrow=none;html=1;rounded=0;entryX=0;entryY=1;entryDx=0;entryDy=0;exitX=0.755;exitY=0.075;exitDx=0;exitDy=0;exitPerimeter=0;" parent="1" source="vzFSnmXwqkyDsA1X07gd-39" target="lveurod9TtLe9vHSPx2q-63" edge="1">
          <mxGeometry width="50" height="50" relative="1" as="geometry">
            <mxPoint x="278.25" y="796" as="sourcePoint" />
            <mxPoint x="309.25" y="778" as="targetPoint" />
          </mxGeometry>
        </mxCell>
        <mxCell id="vzFSnmXwqkyDsA1X07gd-41" value="decisions" style="ellipse;whiteSpace=wrap;html=1;" parent="1" vertex="1">
          <mxGeometry x="261" y="1070" width="75" height="40" as="geometry" />
        </mxCell>
        <mxCell id="vzFSnmXwqkyDsA1X07gd-42" value="" style="endArrow=none;html=1;rounded=0;entryX=0.11;entryY=1.036;entryDx=0;entryDy=0;exitX=0.5;exitY=0;exitDx=0;exitDy=0;entryPerimeter=0;" parent="1" target="lveurod9TtLe9vHSPx2q-63" edge="1" source="vzFSnmXwqkyDsA1X07gd-41">
          <mxGeometry width="50" height="50" relative="1" as="geometry">
            <mxPoint x="286.75" y="869.9999999999998" as="sourcePoint" />
            <mxPoint x="309.25" y="790" as="targetPoint" />
          </mxGeometry>
        </mxCell>
        <mxCell id="vzFSnmXwqkyDsA1X07gd-43" value="determination" style="ellipse;whiteSpace=wrap;html=1;" parent="1" vertex="1">
          <mxGeometry x="337.5" y="1100" width="87.5" height="40" as="geometry" />
        </mxCell>
        <mxCell id="vzFSnmXwqkyDsA1X07gd-44" value="" style="endArrow=none;html=1;rounded=0;entryX=0.5;entryY=1;entryDx=0;entryDy=0;exitX=0.5;exitY=0;exitDx=0;exitDy=0;" parent="1" source="vzFSnmXwqkyDsA1X07gd-43" target="lveurod9TtLe9vHSPx2q-63" edge="1">
          <mxGeometry width="50" height="50" relative="1" as="geometry">
            <mxPoint x="297.25" y="880" as="sourcePoint" />
            <mxPoint x="320.25" y="792" as="targetPoint" />
          </mxGeometry>
        </mxCell>
        <mxCell id="vzFSnmXwqkyDsA1X07gd-45" value="flair" style="ellipse;whiteSpace=wrap;html=1;" parent="1" vertex="1">
          <mxGeometry x="311" y="1030" width="60" height="40" as="geometry" />
        </mxCell>
        <mxCell id="vzFSnmXwqkyDsA1X07gd-46" value="" style="endArrow=none;html=1;rounded=0;entryX=0.25;entryY=1;entryDx=0;entryDy=0;exitX=0.322;exitY=0.056;exitDx=0;exitDy=0;exitPerimeter=0;" parent="1" source="vzFSnmXwqkyDsA1X07gd-45" target="lveurod9TtLe9vHSPx2q-63" edge="1">
          <mxGeometry width="50" height="50" relative="1" as="geometry">
            <mxPoint x="353.25" y="840" as="sourcePoint" />
            <mxPoint x="359.25" y="790" as="targetPoint" />
          </mxGeometry>
        </mxCell>
        <mxCell id="vzFSnmXwqkyDsA1X07gd-47" value="leadership" style="ellipse;whiteSpace=wrap;html=1;" parent="1" vertex="1">
          <mxGeometry x="381" y="1060" width="60" height="40" as="geometry" />
        </mxCell>
        <mxCell id="vzFSnmXwqkyDsA1X07gd-48" value="" style="endArrow=none;html=1;rounded=0;entryX=0.695;entryY=1.03;entryDx=0;entryDy=0;exitX=0.167;exitY=0.063;exitDx=0;exitDy=0;exitPerimeter=0;entryPerimeter=0;" parent="1" source="vzFSnmXwqkyDsA1X07gd-47" target="lveurod9TtLe9vHSPx2q-63" edge="1">
          <mxGeometry width="50" height="50" relative="1" as="geometry">
            <mxPoint x="328.25" y="842" as="sourcePoint" />
            <mxPoint x="334.25" y="790" as="targetPoint" />
          </mxGeometry>
        </mxCell>
        <mxCell id="vzFSnmXwqkyDsA1X07gd-49" value="off_the_ball" style="ellipse;whiteSpace=wrap;html=1;" parent="1" vertex="1">
          <mxGeometry x="396" y="1010" width="76" height="40" as="geometry" />
        </mxCell>
        <mxCell id="vzFSnmXwqkyDsA1X07gd-50" value="" style="endArrow=none;html=1;rounded=0;entryX=1;entryY=1;entryDx=0;entryDy=0;exitX=0.5;exitY=0;exitDx=0;exitDy=0;" parent="1" source="vzFSnmXwqkyDsA1X07gd-49" target="lveurod9TtLe9vHSPx2q-63" edge="1">
          <mxGeometry width="50" height="50" relative="1" as="geometry">
            <mxPoint x="389.25" y="873" as="sourcePoint" />
            <mxPoint x="379.25" y="792" as="targetPoint" />
          </mxGeometry>
        </mxCell>
        <mxCell id="vzFSnmXwqkyDsA1X07gd-51" value="positioning" style="ellipse;whiteSpace=wrap;html=1;" parent="1" vertex="1">
          <mxGeometry x="479" y="1020" width="65" height="40" as="geometry" />
        </mxCell>
        <mxCell id="vzFSnmXwqkyDsA1X07gd-52" value="" style="endArrow=none;html=1;rounded=0;entryX=1;entryY=0.75;entryDx=0;entryDy=0;exitX=0;exitY=0;exitDx=0;exitDy=0;" parent="1" source="vzFSnmXwqkyDsA1X07gd-51" target="lveurod9TtLe9vHSPx2q-63" edge="1">
          <mxGeometry width="50" height="50" relative="1" as="geometry">
            <mxPoint x="432.25" y="820" as="sourcePoint" />
            <mxPoint x="409.25" y="790" as="targetPoint" />
          </mxGeometry>
        </mxCell>
        <mxCell id="vzFSnmXwqkyDsA1X07gd-53" value="teamwork" style="ellipse;whiteSpace=wrap;html=1;" parent="1" vertex="1">
          <mxGeometry x="427.5" y="890" width="65" height="40" as="geometry" />
        </mxCell>
        <mxCell id="vzFSnmXwqkyDsA1X07gd-54" value="" style="endArrow=none;html=1;rounded=0;entryX=0.999;entryY=0.146;entryDx=0;entryDy=0;exitX=0;exitY=0.5;exitDx=0;exitDy=0;entryPerimeter=0;" parent="1" source="vzFSnmXwqkyDsA1X07gd-53" target="lveurod9TtLe9vHSPx2q-63" edge="1">
          <mxGeometry width="50" height="50" relative="1" as="geometry">
            <mxPoint x="432.25" y="820" as="sourcePoint" />
            <mxPoint x="409.25" y="790" as="targetPoint" />
          </mxGeometry>
        </mxCell>
        <mxCell id="vzFSnmXwqkyDsA1X07gd-55" value="vision" style="ellipse;whiteSpace=wrap;html=1;" parent="1" vertex="1">
          <mxGeometry x="417.5" y="840" width="65" height="40" as="geometry" />
        </mxCell>
        <mxCell id="vzFSnmXwqkyDsA1X07gd-56" value="" style="endArrow=none;html=1;rounded=0;entryX=0.858;entryY=-0.008;entryDx=0;entryDy=0;exitX=0.276;exitY=0.944;exitDx=0;exitDy=0;entryPerimeter=0;exitPerimeter=0;" parent="1" source="vzFSnmXwqkyDsA1X07gd-55" target="lveurod9TtLe9vHSPx2q-63" edge="1">
          <mxGeometry width="50" height="50" relative="1" as="geometry">
            <mxPoint x="470.25" y="780" as="sourcePoint" />
            <mxPoint x="409.25" y="765" as="targetPoint" />
          </mxGeometry>
        </mxCell>
        <mxCell id="vzFSnmXwqkyDsA1X07gd-57" value="work_rate" style="ellipse;whiteSpace=wrap;html=1;" parent="1" vertex="1">
          <mxGeometry x="352.5" y="870" width="65" height="40" as="geometry" />
        </mxCell>
        <mxCell id="vzFSnmXwqkyDsA1X07gd-58" value="" style="endArrow=none;html=1;rounded=0;entryX=0.5;entryY=0;entryDx=0;entryDy=0;exitX=0;exitY=1;exitDx=0;exitDy=0;" parent="1" source="vzFSnmXwqkyDsA1X07gd-57" target="lveurod9TtLe9vHSPx2q-63" edge="1">
          <mxGeometry width="50" height="50" relative="1" as="geometry">
            <mxPoint x="464.25" y="750" as="sourcePoint" />
            <mxPoint x="409.25" y="753" as="targetPoint" />
          </mxGeometry>
        </mxCell>
        <mxCell id="vzFSnmXwqkyDsA1X07gd-61" value="" style="endArrow=none;html=1;rounded=0;entryX=0.5;entryY=0;entryDx=0;entryDy=0;exitX=0.686;exitY=0.979;exitDx=0;exitDy=0;exitPerimeter=0;" parent="1" source="lveurod9TtLe9vHSPx2q-1" target="lveurod9TtLe9vHSPx2q-10" edge="1">
          <mxGeometry width="50" height="50" relative="1" as="geometry">
            <mxPoint x="570" y="430" as="sourcePoint" />
            <mxPoint x="592.5" y="310" as="targetPoint" />
          </mxGeometry>
        </mxCell>
        <mxCell id="lveurod9TtLe9vHSPx2q-10" value="foot" style="ellipse;whiteSpace=wrap;html=1;" parent="1" vertex="1">
          <mxGeometry x="588.5" y="460" width="60" height="40" as="geometry" />
        </mxCell>
        <mxCell id="vzFSnmXwqkyDsA1X07gd-65" style="edgeStyle=orthogonalEdgeStyle;rounded=0;orthogonalLoop=1;jettySize=auto;html=1;entryX=0.152;entryY=1;entryDx=0;entryDy=0;entryPerimeter=0;endArrow=none;endFill=0;" parent="1" source="vzFSnmXwqkyDsA1X07gd-64" target="lveurod9TtLe9vHSPx2q-31" edge="1">
          <mxGeometry relative="1" as="geometry">
            <mxPoint x="473.5" y="670" as="targetPoint" />
            <Array as="points">
              <mxPoint x="519" y="665" />
            </Array>
          </mxGeometry>
        </mxCell>
        <mxCell id="vzFSnmXwqkyDsA1X07gd-64" value="contains" style="rhombus;whiteSpace=wrap;html=1;" parent="1" vertex="1">
          <mxGeometry x="484" y="745" width="70" height="70" as="geometry" />
        </mxCell>
        <mxCell id="vzFSnmXwqkyDsA1X07gd-67" value="" style="endArrow=none;html=1;rounded=0;entryX=0.357;entryY=0.13;entryDx=0;entryDy=0;exitX=1;exitY=0.594;exitDx=0;exitDy=0;exitPerimeter=0;entryPerimeter=0;" parent="1" source="lveurod9TtLe9vHSPx2q-58" target="vzFSnmXwqkyDsA1X07gd-64" edge="1">
          <mxGeometry width="50" height="50" relative="1" as="geometry">
            <mxPoint x="313.5" y="715" as="sourcePoint" />
            <mxPoint x="448.5" y="735" as="targetPoint" />
          </mxGeometry>
        </mxCell>
        <mxCell id="vzFSnmXwqkyDsA1X07gd-68" value="acceleration" style="ellipse;whiteSpace=wrap;html=1;" parent="1" vertex="1">
          <mxGeometry x="622" y="880" width="78" height="40" as="geometry" />
        </mxCell>
        <mxCell id="vzFSnmXwqkyDsA1X07gd-69" value="agility" style="ellipse;whiteSpace=wrap;html=1;" parent="1" vertex="1">
          <mxGeometry x="573" y="930" width="71" height="40" as="geometry" />
        </mxCell>
        <mxCell id="vzFSnmXwqkyDsA1X07gd-70" value="balance" style="ellipse;whiteSpace=wrap;html=1;" parent="1" vertex="1">
          <mxGeometry x="558.5" y="990" width="71" height="40" as="geometry" />
        </mxCell>
        <mxCell id="vzFSnmXwqkyDsA1X07gd-71" value="jumping" style="ellipse;whiteSpace=wrap;html=1;" parent="1" vertex="1">
          <mxGeometry x="608.5" y="1040" width="71" height="40" as="geometry" />
        </mxCell>
        <mxCell id="vzFSnmXwqkyDsA1X07gd-72" value="fitness" style="ellipse;whiteSpace=wrap;html=1;" parent="1" vertex="1">
          <mxGeometry x="687" y="1070" width="71" height="40" as="geometry" />
        </mxCell>
        <mxCell id="vzFSnmXwqkyDsA1X07gd-73" value="pace" style="ellipse;whiteSpace=wrap;html=1;" parent="1" vertex="1">
          <mxGeometry x="771" y="1060" width="71" height="40" as="geometry" />
        </mxCell>
        <mxCell id="vzFSnmXwqkyDsA1X07gd-74" value="stamina" style="ellipse;whiteSpace=wrap;html=1;" parent="1" vertex="1">
          <mxGeometry x="820" y="1010" width="71" height="40" as="geometry" />
        </mxCell>
        <mxCell id="vzFSnmXwqkyDsA1X07gd-75" value="strength" style="ellipse;whiteSpace=wrap;html=1;" parent="1" vertex="1">
          <mxGeometry x="827" y="950" width="71" height="40" as="geometry" />
        </mxCell>
        <mxCell id="vzFSnmXwqkyDsA1X07gd-77" value="" style="endArrow=none;html=1;rounded=0;exitX=0.744;exitY=0.955;exitDx=0;exitDy=0;exitPerimeter=0;entryX=0.25;entryY=0;entryDx=0;entryDy=0;" parent="1" source="vzFSnmXwqkyDsA1X07gd-68" target="lveurod9TtLe9vHSPx2q-59" edge="1">
          <mxGeometry width="50" height="50" relative="1" as="geometry">
            <mxPoint x="588.25" y="850" as="sourcePoint" />
            <mxPoint x="638.25" y="800" as="targetPoint" />
          </mxGeometry>
        </mxCell>
        <mxCell id="vzFSnmXwqkyDsA1X07gd-78" value="" style="endArrow=none;html=1;rounded=0;exitX=1;exitY=0.5;exitDx=0;exitDy=0;entryX=0;entryY=0.25;entryDx=0;entryDy=0;" parent="1" source="vzFSnmXwqkyDsA1X07gd-69" target="lveurod9TtLe9vHSPx2q-59" edge="1">
          <mxGeometry width="50" height="50" relative="1" as="geometry">
            <mxPoint x="690" y="928" as="sourcePoint" />
            <mxPoint x="722" y="960" as="targetPoint" />
          </mxGeometry>
        </mxCell>
        <mxCell id="vzFSnmXwqkyDsA1X07gd-79" value="" style="endArrow=none;html=1;rounded=0;exitX=0.964;exitY=0.326;exitDx=0;exitDy=0;entryX=0;entryY=0.75;entryDx=0;entryDy=0;exitPerimeter=0;" parent="1" source="vzFSnmXwqkyDsA1X07gd-70" target="lveurod9TtLe9vHSPx2q-59" edge="1">
          <mxGeometry width="50" height="50" relative="1" as="geometry">
            <mxPoint x="654" y="960" as="sourcePoint" />
            <mxPoint x="697" y="973" as="targetPoint" />
          </mxGeometry>
        </mxCell>
        <mxCell id="vzFSnmXwqkyDsA1X07gd-80" value="" style="endArrow=none;html=1;rounded=0;exitX=0.775;exitY=0.093;exitDx=0;exitDy=0;entryX=0;entryY=1;entryDx=0;entryDy=0;exitPerimeter=0;" parent="1" source="vzFSnmXwqkyDsA1X07gd-71" target="lveurod9TtLe9vHSPx2q-59" edge="1">
          <mxGeometry width="50" height="50" relative="1" as="geometry">
            <mxPoint x="637" y="1013" as="sourcePoint" />
            <mxPoint x="697" y="998" as="targetPoint" />
          </mxGeometry>
        </mxCell>
        <mxCell id="vzFSnmXwqkyDsA1X07gd-81" value="" style="endArrow=none;html=1;rounded=0;exitX=0.5;exitY=0;exitDx=0;exitDy=0;entryX=0.441;entryY=1.047;entryDx=0;entryDy=0;entryPerimeter=0;" parent="1" source="vzFSnmXwqkyDsA1X07gd-72" target="lveurod9TtLe9vHSPx2q-59" edge="1">
          <mxGeometry width="50" height="50" relative="1" as="geometry">
            <mxPoint x="674" y="1054" as="sourcePoint" />
            <mxPoint x="697" y="1010" as="targetPoint" />
          </mxGeometry>
        </mxCell>
        <mxCell id="vzFSnmXwqkyDsA1X07gd-82" value="" style="endArrow=none;html=1;rounded=0;entryX=0.75;entryY=1;entryDx=0;entryDy=0;" parent="1" source="vzFSnmXwqkyDsA1X07gd-73" target="lveurod9TtLe9vHSPx2q-59" edge="1">
          <mxGeometry width="50" height="50" relative="1" as="geometry">
            <mxPoint x="732" y="1080" as="sourcePoint" />
            <mxPoint x="741" y="1012" as="targetPoint" />
          </mxGeometry>
        </mxCell>
        <mxCell id="vzFSnmXwqkyDsA1X07gd-83" value="" style="endArrow=none;html=1;rounded=0;entryX=1.007;entryY=0.881;entryDx=0;entryDy=0;entryPerimeter=0;exitX=0;exitY=0;exitDx=0;exitDy=0;" parent="1" source="vzFSnmXwqkyDsA1X07gd-74" target="lveurod9TtLe9vHSPx2q-59" edge="1">
          <mxGeometry width="50" height="50" relative="1" as="geometry">
            <mxPoint x="806" y="1071" as="sourcePoint" />
            <mxPoint x="772" y="1010" as="targetPoint" />
          </mxGeometry>
        </mxCell>
        <mxCell id="vzFSnmXwqkyDsA1X07gd-84" value="" style="endArrow=none;html=1;rounded=0;entryX=1.007;entryY=0.357;entryDx=0;entryDy=0;entryPerimeter=0;exitX=0;exitY=0.5;exitDx=0;exitDy=0;" parent="1" source="vzFSnmXwqkyDsA1X07gd-75" target="lveurod9TtLe9vHSPx2q-59" edge="1">
          <mxGeometry width="50" height="50" relative="1" as="geometry">
            <mxPoint x="841" y="1026" as="sourcePoint" />
            <mxPoint x="798" y="1004" as="targetPoint" />
          </mxGeometry>
        </mxCell>
        <mxCell id="vzFSnmXwqkyDsA1X07gd-86" value="" style="endArrow=none;html=1;rounded=0;entryX=0;entryY=1;entryDx=0;entryDy=0;exitX=1;exitY=0;exitDx=0;exitDy=0;" parent="1" source="lveurod9TtLe9vHSPx2q-67" target="lveurod9TtLe9vHSPx2q-66" edge="1">
          <mxGeometry width="50" height="50" relative="1" as="geometry">
            <mxPoint x="481.5" y="610" as="sourcePoint" />
            <mxPoint x="531.5" y="560" as="targetPoint" />
          </mxGeometry>
        </mxCell>
        <mxCell id="vzFSnmXwqkyDsA1X07gd-87" value="aerial" style="ellipse;whiteSpace=wrap;html=1;" parent="1" vertex="1">
          <mxGeometry x="1005" y="595" width="70" height="40" as="geometry" />
        </mxCell>
        <mxCell id="vzFSnmXwqkyDsA1X07gd-88" value="" style="endArrow=none;html=1;rounded=0;entryX=0.651;entryY=0.955;entryDx=0;entryDy=0;entryPerimeter=0;exitX=0.75;exitY=0;exitDx=0;exitDy=0;" parent="1" source="lveurod9TtLe9vHSPx2q-66" target="vzFSnmXwqkyDsA1X07gd-87" edge="1">
          <mxGeometry width="50" height="50" relative="1" as="geometry">
            <mxPoint x="915" y="755" as="sourcePoint" />
            <mxPoint x="965" y="705" as="targetPoint" />
          </mxGeometry>
        </mxCell>
        <mxCell id="vzFSnmXwqkyDsA1X07gd-89" value="aerial" style="ellipse;whiteSpace=wrap;html=1;" parent="1" vertex="1">
          <mxGeometry x="925" y="585" width="70" height="40" as="geometry" />
        </mxCell>
        <mxCell id="vzFSnmXwqkyDsA1X07gd-90" value="" style="endArrow=none;html=1;rounded=0;entryX=0.966;entryY=0.735;entryDx=0;entryDy=0;entryPerimeter=0;exitX=0.648;exitY=0.02;exitDx=0;exitDy=0;exitPerimeter=0;" parent="1" source="lveurod9TtLe9vHSPx2q-66" target="vzFSnmXwqkyDsA1X07gd-89" edge="1">
          <mxGeometry width="50" height="50" relative="1" as="geometry">
            <mxPoint x="1060" y="685" as="sourcePoint" />
            <mxPoint x="1061" y="643" as="targetPoint" />
          </mxGeometry>
        </mxCell>
        <mxCell id="vzFSnmXwqkyDsA1X07gd-91" value="area_command" style="ellipse;whiteSpace=wrap;html=1;" parent="1" vertex="1">
          <mxGeometry x="885" y="635" width="90" height="40" as="geometry" />
        </mxCell>
        <mxCell id="vzFSnmXwqkyDsA1X07gd-92" value="" style="endArrow=none;html=1;rounded=0;entryX=0.99;entryY=0.705;entryDx=0;entryDy=0;entryPerimeter=0;exitX=0.124;exitY=-0.004;exitDx=0;exitDy=0;exitPerimeter=0;" parent="1" source="lveurod9TtLe9vHSPx2q-66" target="vzFSnmXwqkyDsA1X07gd-91" edge="1">
          <mxGeometry width="50" height="50" relative="1" as="geometry">
            <mxPoint x="945" y="715" as="sourcePoint" />
            <mxPoint x="995" y="665" as="targetPoint" />
          </mxGeometry>
        </mxCell>
        <mxCell id="vzFSnmXwqkyDsA1X07gd-93" value="communication" style="ellipse;whiteSpace=wrap;html=1;" parent="1" vertex="1">
          <mxGeometry x="842" y="680" width="90" height="40" as="geometry" />
        </mxCell>
        <mxCell id="vzFSnmXwqkyDsA1X07gd-94" value="" style="endArrow=none;html=1;rounded=0;entryX=0;entryY=0.5;entryDx=0;entryDy=0;exitX=1;exitY=0.5;exitDx=0;exitDy=0;" parent="1" source="vzFSnmXwqkyDsA1X07gd-93" target="lveurod9TtLe9vHSPx2q-66" edge="1">
          <mxGeometry width="50" height="50" relative="1" as="geometry">
            <mxPoint x="741.5" y="570" as="sourcePoint" />
            <mxPoint x="791.5" y="520" as="targetPoint" />
          </mxGeometry>
        </mxCell>
        <mxCell id="vzFSnmXwqkyDsA1X07gd-95" value="eccentricity" style="ellipse;whiteSpace=wrap;html=1;" parent="1" vertex="1">
          <mxGeometry x="1085" y="590" width="90" height="40" as="geometry" />
        </mxCell>
        <mxCell id="vzFSnmXwqkyDsA1X07gd-96" value="first_touch" style="ellipse;whiteSpace=wrap;html=1;" parent="1" vertex="1">
          <mxGeometry x="1095" y="635" width="90" height="40" as="geometry" />
        </mxCell>
        <mxCell id="vzFSnmXwqkyDsA1X07gd-97" value="handling" style="ellipse;whiteSpace=wrap;html=1;" parent="1" vertex="1">
          <mxGeometry x="1155" y="675" width="60" height="40" as="geometry" />
        </mxCell>
        <mxCell id="vzFSnmXwqkyDsA1X07gd-98" value="kicking" style="ellipse;whiteSpace=wrap;html=1;" parent="1" vertex="1">
          <mxGeometry x="1105" y="708" width="70" height="40" as="geometry" />
        </mxCell>
        <mxCell id="vzFSnmXwqkyDsA1X07gd-99" value="one_on_one" style="ellipse;whiteSpace=wrap;html=1;" parent="1" vertex="1">
          <mxGeometry x="1125" y="755" width="70" height="40" as="geometry" />
        </mxCell>
        <mxCell id="vzFSnmXwqkyDsA1X07gd-100" value="passing" style="ellipse;whiteSpace=wrap;html=1;" parent="1" vertex="1">
          <mxGeometry x="1110" y="797" width="60" height="40" as="geometry" />
        </mxCell>
        <mxCell id="vzFSnmXwqkyDsA1X07gd-101" value="punching" style="ellipse;whiteSpace=wrap;html=1;" parent="1" vertex="1">
          <mxGeometry x="1045" y="775" width="60" height="40" as="geometry" />
        </mxCell>
        <mxCell id="vzFSnmXwqkyDsA1X07gd-102" value="reflexes" style="ellipse;whiteSpace=wrap;html=1;" parent="1" vertex="1">
          <mxGeometry x="1005" y="815" width="60" height="40" as="geometry" />
        </mxCell>
        <mxCell id="vzFSnmXwqkyDsA1X07gd-103" value="rushing" style="ellipse;whiteSpace=wrap;html=1;" parent="1" vertex="1">
          <mxGeometry x="945" y="835" width="60" height="40" as="geometry" />
        </mxCell>
        <mxCell id="vzFSnmXwqkyDsA1X07gd-104" value="throwing" style="ellipse;whiteSpace=wrap;html=1;" parent="1" vertex="1">
          <mxGeometry x="900" y="780" width="60" height="40" as="geometry" />
        </mxCell>
        <mxCell id="vzFSnmXwqkyDsA1X07gd-105" value="" style="endArrow=none;html=1;rounded=0;entryX=0.11;entryY=0.991;entryDx=0;entryDy=0;entryPerimeter=0;" parent="1" target="lveurod9TtLe9vHSPx2q-66" edge="1">
          <mxGeometry width="50" height="50" relative="1" as="geometry">
            <mxPoint x="954.4868329805599" y="786.0263340388801" as="sourcePoint" />
            <mxPoint x="985" y="705" as="targetPoint" />
          </mxGeometry>
        </mxCell>
        <mxCell id="vzFSnmXwqkyDsA1X07gd-106" value="" style="endArrow=none;html=1;rounded=0;entryX=0.25;entryY=1;entryDx=0;entryDy=0;exitX=0.5;exitY=0;exitDx=0;exitDy=0;" parent="1" source="vzFSnmXwqkyDsA1X07gd-103" target="lveurod9TtLe9vHSPx2q-66" edge="1">
          <mxGeometry width="50" height="50" relative="1" as="geometry">
            <mxPoint x="965" y="796" as="sourcePoint" />
            <mxPoint x="996" y="735" as="targetPoint" />
          </mxGeometry>
        </mxCell>
        <mxCell id="vzFSnmXwqkyDsA1X07gd-107" value="" style="endArrow=none;html=1;rounded=0;entryX=0.389;entryY=0.977;entryDx=0;entryDy=0;entryPerimeter=0;" parent="1" source="vzFSnmXwqkyDsA1X07gd-102" target="lveurod9TtLe9vHSPx2q-66" edge="1">
          <mxGeometry width="50" height="50" relative="1" as="geometry">
            <mxPoint x="985" y="845" as="sourcePoint" />
            <mxPoint x="1010" y="735" as="targetPoint" />
          </mxGeometry>
        </mxCell>
        <mxCell id="vzFSnmXwqkyDsA1X07gd-108" value="" style="endArrow=none;html=1;rounded=0;entryX=0.603;entryY=1.006;entryDx=0;entryDy=0;entryPerimeter=0;exitX=0.255;exitY=0.096;exitDx=0;exitDy=0;exitPerimeter=0;" parent="1" source="vzFSnmXwqkyDsA1X07gd-101" target="lveurod9TtLe9vHSPx2q-66" edge="1">
          <mxGeometry width="50" height="50" relative="1" as="geometry">
            <mxPoint x="1041" y="825" as="sourcePoint" />
            <mxPoint x="1024" y="734" as="targetPoint" />
          </mxGeometry>
        </mxCell>
        <mxCell id="vzFSnmXwqkyDsA1X07gd-109" value="" style="endArrow=none;html=1;rounded=0;entryX=0.846;entryY=1.02;entryDx=0;entryDy=0;entryPerimeter=0;exitX=0.231;exitY=0.118;exitDx=0;exitDy=0;exitPerimeter=0;" parent="1" source="vzFSnmXwqkyDsA1X07gd-100" target="lveurod9TtLe9vHSPx2q-66" edge="1">
          <mxGeometry width="50" height="50" relative="1" as="geometry">
            <mxPoint x="1070" y="789" as="sourcePoint" />
            <mxPoint x="1045" y="735" as="targetPoint" />
          </mxGeometry>
        </mxCell>
        <mxCell id="vzFSnmXwqkyDsA1X07gd-110" value="" style="endArrow=none;html=1;rounded=0;entryX=1;entryY=1;entryDx=0;entryDy=0;exitX=0.055;exitY=0.257;exitDx=0;exitDy=0;exitPerimeter=0;" parent="1" source="vzFSnmXwqkyDsA1X07gd-99" target="lveurod9TtLe9vHSPx2q-66" edge="1">
          <mxGeometry width="50" height="50" relative="1" as="geometry">
            <mxPoint x="1134" y="812" as="sourcePoint" />
            <mxPoint x="1081" y="734" as="targetPoint" />
          </mxGeometry>
        </mxCell>
        <mxCell id="vzFSnmXwqkyDsA1X07gd-111" value="" style="endArrow=none;html=1;rounded=0;entryX=1;entryY=0.75;entryDx=0;entryDy=0;exitX=0;exitY=0.5;exitDx=0;exitDy=0;" parent="1" source="vzFSnmXwqkyDsA1X07gd-98" target="lveurod9TtLe9vHSPx2q-66" edge="1">
          <mxGeometry width="50" height="50" relative="1" as="geometry">
            <mxPoint x="1139" y="775" as="sourcePoint" />
            <mxPoint x="1085" y="735" as="targetPoint" />
          </mxGeometry>
        </mxCell>
        <mxCell id="vzFSnmXwqkyDsA1X07gd-112" value="" style="endArrow=none;html=1;rounded=0;entryX=1;entryY=0.5;entryDx=0;entryDy=0;exitX=0;exitY=0.5;exitDx=0;exitDy=0;" parent="1" source="vzFSnmXwqkyDsA1X07gd-97" target="lveurod9TtLe9vHSPx2q-66" edge="1">
          <mxGeometry width="50" height="50" relative="1" as="geometry">
            <mxPoint x="1122" y="729" as="sourcePoint" />
            <mxPoint x="1085" y="723" as="targetPoint" />
          </mxGeometry>
        </mxCell>
        <mxCell id="vzFSnmXwqkyDsA1X07gd-113" value="" style="endArrow=none;html=1;rounded=0;exitX=0;exitY=1;exitDx=0;exitDy=0;entryX=1;entryY=0.25;entryDx=0;entryDy=0;" parent="1" source="vzFSnmXwqkyDsA1X07gd-96" target="lveurod9TtLe9vHSPx2q-66" edge="1">
          <mxGeometry width="50" height="50" relative="1" as="geometry">
            <mxPoint x="1165" y="705" as="sourcePoint" />
            <mxPoint x="1078" y="681" as="targetPoint" />
          </mxGeometry>
        </mxCell>
        <mxCell id="vzFSnmXwqkyDsA1X07gd-114" value="" style="endArrow=none;html=1;rounded=0;entryX=0.903;entryY=0.006;entryDx=0;entryDy=0;exitX=0;exitY=1;exitDx=0;exitDy=0;entryPerimeter=0;" parent="1" source="vzFSnmXwqkyDsA1X07gd-95" target="lveurod9TtLe9vHSPx2q-66" edge="1">
          <mxGeometry width="50" height="50" relative="1" as="geometry">
            <mxPoint x="1118" y="679" as="sourcePoint" />
            <mxPoint x="1088" y="691" as="targetPoint" />
          </mxGeometry>
        </mxCell>
        <mxCell id="vzFSnmXwqkyDsA1X07gd-118" style="edgeStyle=orthogonalEdgeStyle;rounded=0;orthogonalLoop=1;jettySize=auto;html=1;entryX=0.5;entryY=1;entryDx=0;entryDy=0;endArrow=none;endFill=0;" parent="1" source="vzFSnmXwqkyDsA1X07gd-115" target="lveurod9TtLe9vHSPx2q-65" edge="1">
          <mxGeometry relative="1" as="geometry" />
        </mxCell>
        <mxCell id="vzFSnmXwqkyDsA1X07gd-115" value="penalty" style="ellipse;whiteSpace=wrap;html=1;" parent="1" vertex="1">
          <mxGeometry x="966" y="1060" width="71" height="40" as="geometry" />
        </mxCell>
        <mxCell id="vzFSnmXwqkyDsA1X07gd-116" value="freekick" style="ellipse;whiteSpace=wrap;html=1;" parent="1" vertex="1">
          <mxGeometry x="1010.5" y="915" width="71" height="40" as="geometry" />
        </mxCell>
        <mxCell id="vzFSnmXwqkyDsA1X07gd-117" value="technique" style="ellipse;whiteSpace=wrap;html=1;" parent="1" vertex="1">
          <mxGeometry x="1076" y="1015" width="71" height="40" as="geometry" />
        </mxCell>
        <mxCell id="vzFSnmXwqkyDsA1X07gd-119" value="" style="endArrow=none;html=1;rounded=0;entryX=0;entryY=0.5;entryDx=0;entryDy=0;exitX=1;exitY=1;exitDx=0;exitDy=0;" parent="1" source="lveurod9TtLe9vHSPx2q-65" target="vzFSnmXwqkyDsA1X07gd-117" edge="1">
          <mxGeometry width="50" height="50" relative="1" as="geometry">
            <mxPoint x="921.5" y="995" as="sourcePoint" />
            <mxPoint x="971.5" y="945" as="targetPoint" />
          </mxGeometry>
        </mxCell>
        <mxCell id="vzFSnmXwqkyDsA1X07gd-120" value="" style="endArrow=none;html=1;rounded=0;entryX=0.353;entryY=0.967;entryDx=0;entryDy=0;exitX=0.75;exitY=0;exitDx=0;exitDy=0;entryPerimeter=0;" parent="1" source="lveurod9TtLe9vHSPx2q-65" target="vzFSnmXwqkyDsA1X07gd-116" edge="1">
          <mxGeometry width="50" height="50" relative="1" as="geometry">
            <mxPoint x="1061.5" y="1035" as="sourcePoint" />
            <mxPoint x="1085.5" y="1045" as="targetPoint" />
          </mxGeometry>
        </mxCell>
        <mxCell id="vzFSnmXwqkyDsA1X07gd-124" value="Position" style="rounded=0;whiteSpace=wrap;html=1;" parent="1" vertex="1">
          <mxGeometry x="378.5" y="180" width="80" height="50" as="geometry" />
        </mxCell>
        <mxCell id="vzFSnmXwqkyDsA1X07gd-125" value="&lt;u&gt;id&lt;/u&gt;" style="ellipse;whiteSpace=wrap;html=1;" parent="1" vertex="1">
          <mxGeometry x="296.5" y="240" width="60" height="40" as="geometry" />
        </mxCell>
        <mxCell id="vzFSnmXwqkyDsA1X07gd-126" value="name" style="ellipse;whiteSpace=wrap;html=1;" parent="1" vertex="1">
          <mxGeometry x="296.5" y="150" width="60" height="40" as="geometry" />
        </mxCell>
        <mxCell id="vzFSnmXwqkyDsA1X07gd-127" value="" style="endArrow=none;html=1;rounded=0;exitX=0.933;exitY=0.222;exitDx=0;exitDy=0;exitPerimeter=0;entryX=0;entryY=1;entryDx=0;entryDy=0;" parent="1" source="vzFSnmXwqkyDsA1X07gd-125" target="vzFSnmXwqkyDsA1X07gd-124" edge="1">
          <mxGeometry width="50" height="50" relative="1" as="geometry">
            <mxPoint x="267" y="290" as="sourcePoint" />
            <mxPoint x="317" y="240" as="targetPoint" />
          </mxGeometry>
        </mxCell>
        <mxCell id="vzFSnmXwqkyDsA1X07gd-128" value="" style="endArrow=none;html=1;rounded=0;exitX=0.954;exitY=0.628;exitDx=0;exitDy=0;exitPerimeter=0;entryX=0;entryY=0;entryDx=0;entryDy=0;" parent="1" source="vzFSnmXwqkyDsA1X07gd-126" target="vzFSnmXwqkyDsA1X07gd-124" edge="1">
          <mxGeometry width="50" height="50" relative="1" as="geometry">
            <mxPoint x="153" y="209" as="sourcePoint" />
            <mxPoint x="176" y="180" as="targetPoint" />
          </mxGeometry>
        </mxCell>
        <mxCell id="vzFSnmXwqkyDsA1X07gd-129" value="&lt;u&gt;id&lt;/u&gt;" style="ellipse;whiteSpace=wrap;html=1;" parent="1" vertex="1">
          <mxGeometry x="711.5" y="250" width="60" height="40" as="geometry" />
        </mxCell>
        <mxCell id="vzFSnmXwqkyDsA1X07gd-130" value="name" style="ellipse;whiteSpace=wrap;html=1;" parent="1" vertex="1">
          <mxGeometry x="703.5" y="130" width="60" height="40" as="geometry" />
        </mxCell>
        <mxCell id="vzFSnmXwqkyDsA1X07gd-131" value="" style="endArrow=none;html=1;rounded=0;exitX=0;exitY=0;exitDx=0;exitDy=0;entryX=0.5;entryY=1;entryDx=0;entryDy=0;" parent="1" source="vzFSnmXwqkyDsA1X07gd-129" target="vzFSnmXwqkyDsA1X07gd-133" edge="1">
          <mxGeometry width="50" height="50" relative="1" as="geometry">
            <mxPoint x="843" y="290" as="sourcePoint" />
            <mxPoint x="893" y="240" as="targetPoint" />
          </mxGeometry>
        </mxCell>
        <mxCell id="vzFSnmXwqkyDsA1X07gd-132" value="" style="endArrow=none;html=1;rounded=0;exitX=0.5;exitY=1;exitDx=0;exitDy=0;entryX=0.5;entryY=0;entryDx=0;entryDy=0;" parent="1" source="vzFSnmXwqkyDsA1X07gd-130" target="vzFSnmXwqkyDsA1X07gd-133" edge="1">
          <mxGeometry width="50" height="50" relative="1" as="geometry">
            <mxPoint x="729" y="209" as="sourcePoint" />
            <mxPoint x="752" y="180" as="targetPoint" />
          </mxGeometry>
        </mxCell>
        <mxCell id="vzFSnmXwqkyDsA1X07gd-133" value="Role" style="rounded=0;whiteSpace=wrap;html=1;" parent="1" vertex="1">
          <mxGeometry x="698.5" y="180" width="80" height="50" as="geometry" />
        </mxCell>
        <mxCell id="BPTk4Z4PryNuK3dZAGBa-3" value="plays in" style="rhombus;whiteSpace=wrap;html=1;" vertex="1" parent="1">
          <mxGeometry x="558.5" y="250" width="60" height="60" as="geometry" />
        </mxCell>
        <mxCell id="BPTk4Z4PryNuK3dZAGBa-4" value="" style="endArrow=none;html=1;rounded=0;entryX=0;entryY=1;entryDx=0;entryDy=0;exitX=1;exitY=0;exitDx=0;exitDy=0;" edge="1" parent="1" source="BPTk4Z4PryNuK3dZAGBa-3" target="vzFSnmXwqkyDsA1X07gd-133">
          <mxGeometry width="50" height="50" relative="1" as="geometry">
            <mxPoint x="570" y="280" as="sourcePoint" />
            <mxPoint x="620" y="230" as="targetPoint" />
          </mxGeometry>
        </mxCell>
        <mxCell id="BPTk4Z4PryNuK3dZAGBa-5" value="" style="endArrow=none;html=1;rounded=0;entryX=0.5;entryY=1;entryDx=0;entryDy=0;exitX=0.613;exitY=-0.008;exitDx=0;exitDy=0;exitPerimeter=0;" edge="1" parent="1" source="lveurod9TtLe9vHSPx2q-1" target="BPTk4Z4PryNuK3dZAGBa-3">
          <mxGeometry width="50" height="50" relative="1" as="geometry">
            <mxPoint x="578.5" y="370" as="sourcePoint" />
            <mxPoint x="620.5" y="335" as="targetPoint" />
          </mxGeometry>
        </mxCell>
        <mxCell id="BPTk4Z4PryNuK3dZAGBa-7" value="" style="endArrow=none;html=1;rounded=0;entryX=1;entryY=1;entryDx=0;entryDy=0;exitX=0.113;exitY=0.402;exitDx=0;exitDy=0;exitPerimeter=0;" edge="1" parent="1" source="BPTk4Z4PryNuK3dZAGBa-3" target="vzFSnmXwqkyDsA1X07gd-124">
          <mxGeometry width="50" height="50" relative="1" as="geometry">
            <mxPoint x="614" y="275" as="sourcePoint" />
            <mxPoint x="709" y="240" as="targetPoint" />
          </mxGeometry>
        </mxCell>
        <mxCell id="BPTk4Z4PryNuK3dZAGBa-9" value="for" style="rhombus;whiteSpace=wrap;html=1;" vertex="1" parent="1">
          <mxGeometry x="558.5" y="140" width="60" height="60" as="geometry" />
        </mxCell>
        <mxCell id="BPTk4Z4PryNuK3dZAGBa-10" value="" style="endArrow=none;html=1;rounded=0;entryX=1;entryY=0;entryDx=0;entryDy=0;exitX=0;exitY=0.5;exitDx=0;exitDy=0;" edge="1" parent="1" source="BPTk4Z4PryNuK3dZAGBa-9" target="vzFSnmXwqkyDsA1X07gd-124">
          <mxGeometry width="50" height="50" relative="1" as="geometry">
            <mxPoint x="575" y="284" as="sourcePoint" />
            <mxPoint x="469" y="240" as="targetPoint" />
          </mxGeometry>
        </mxCell>
        <mxCell id="BPTk4Z4PryNuK3dZAGBa-11" value="" style="endArrow=none;html=1;rounded=0;entryX=1;entryY=0.5;entryDx=0;entryDy=0;exitX=0;exitY=0.25;exitDx=0;exitDy=0;" edge="1" parent="1" source="vzFSnmXwqkyDsA1X07gd-133" target="BPTk4Z4PryNuK3dZAGBa-9">
          <mxGeometry width="50" height="50" relative="1" as="geometry">
            <mxPoint x="569" y="180" as="sourcePoint" />
            <mxPoint x="469" y="190" as="targetPoint" />
          </mxGeometry>
        </mxCell>
        <mxCell id="BPTk4Z4PryNuK3dZAGBa-12" value="1" style="text;html=1;align=center;verticalAlign=middle;whiteSpace=wrap;rounded=0;" vertex="1" parent="1">
          <mxGeometry x="525" y="143" width="60" height="30" as="geometry" />
        </mxCell>
        <mxCell id="BPTk4Z4PryNuK3dZAGBa-13" value="N" style="text;html=1;align=center;verticalAlign=middle;whiteSpace=wrap;rounded=0;" vertex="1" parent="1">
          <mxGeometry x="593" y="143" width="60" height="30" as="geometry" />
        </mxCell>
        <mxCell id="BPTk4Z4PryNuK3dZAGBa-15" value="N" style="text;html=1;align=center;verticalAlign=middle;whiteSpace=wrap;rounded=0;" vertex="1" parent="1">
          <mxGeometry x="549.5" y="305" width="60" height="30" as="geometry" />
        </mxCell>
        <mxCell id="BPTk4Z4PryNuK3dZAGBa-16" value="1" style="text;html=1;align=center;verticalAlign=middle;whiteSpace=wrap;rounded=0;" vertex="1" parent="1">
          <mxGeometry x="443.5" y="210" width="60" height="30" as="geometry" />
        </mxCell>
        <mxCell id="BPTk4Z4PryNuK3dZAGBa-17" value="1" style="text;html=1;align=center;verticalAlign=middle;whiteSpace=wrap;rounded=0;" vertex="1" parent="1">
          <mxGeometry x="658" y="210" width="60" height="30" as="geometry" />
        </mxCell>
        <mxCell id="BPTk4Z4PryNuK3dZAGBa-18" value="" style="endArrow=none;html=1;rounded=0;entryX=0.5;entryY=1;entryDx=0;entryDy=0;exitX=0.613;exitY=-0.008;exitDx=0;exitDy=0;exitPerimeter=0;" edge="1" parent="1">
          <mxGeometry width="50" height="50" relative="1" as="geometry">
            <mxPoint x="592" y="380" as="sourcePoint" />
            <mxPoint x="593" y="310" as="targetPoint" />
          </mxGeometry>
        </mxCell>
        <mxCell id="BPTk4Z4PryNuK3dZAGBa-23" value="" style="endArrow=none;html=1;rounded=0;entryX=1;entryY=1;entryDx=0;entryDy=0;exitX=0.5;exitY=0;exitDx=0;exitDy=0;" edge="1" parent="1" source="lveurod9TtLe9vHSPx2q-65" target="lveurod9TtLe9vHSPx2q-67">
          <mxGeometry width="50" height="50" relative="1" as="geometry">
            <mxPoint x="610" y="920" as="sourcePoint" />
            <mxPoint x="660" y="870" as="targetPoint" />
          </mxGeometry>
        </mxCell>
        <mxCell id="BPTk4Z4PryNuK3dZAGBa-25" style="edgeStyle=orthogonalEdgeStyle;rounded=0;orthogonalLoop=1;jettySize=auto;html=1;exitX=1;exitY=1;exitDx=0;exitDy=0;entryX=0.36;entryY=0.004;entryDx=0;entryDy=0;entryPerimeter=0;endArrow=none;endFill=0;" edge="1" parent="1" source="vzFSnmXwqkyDsA1X07gd-64" target="lveurod9TtLe9vHSPx2q-59">
          <mxGeometry relative="1" as="geometry">
            <Array as="points">
              <mxPoint x="537" y="870" />
              <mxPoint x="723" y="870" />
            </Array>
          </mxGeometry>
        </mxCell>
        <mxCell id="BPTk4Z4PryNuK3dZAGBa-27" value="Contract" style="rounded=0;whiteSpace=wrap;html=1;" vertex="1" parent="1">
          <mxGeometry x="196" y="370" width="80" height="50" as="geometry" />
        </mxCell>
        <mxCell id="BPTk4Z4PryNuK3dZAGBa-28" value="wage" style="ellipse;whiteSpace=wrap;html=1;" vertex="1" parent="1">
          <mxGeometry x="208.5" y="280" width="60" height="40" as="geometry" />
        </mxCell>
        <mxCell id="BPTk4Z4PryNuK3dZAGBa-29" value="duration" style="ellipse;whiteSpace=wrap;html=1;" vertex="1" parent="1">
          <mxGeometry x="83.5" y="370" width="60" height="40" as="geometry" />
        </mxCell>
        <mxCell id="BPTk4Z4PryNuK3dZAGBa-30" value="release_clause" style="ellipse;whiteSpace=wrap;html=1;" vertex="1" parent="1">
          <mxGeometry x="83.5" y="300" width="100" height="40" as="geometry" />
        </mxCell>
        <mxCell id="BPTk4Z4PryNuK3dZAGBa-31" value="contract_end" style="ellipse;whiteSpace=wrap;html=1;" vertex="1" parent="1">
          <mxGeometry x="96" y="450" width="100" height="40" as="geometry" />
        </mxCell>
        <mxCell id="BPTk4Z4PryNuK3dZAGBa-32" value="value" style="ellipse;whiteSpace=wrap;html=1;" vertex="1" parent="1">
          <mxGeometry x="238.5" y="470" width="60" height="40" as="geometry" />
        </mxCell>
        <mxCell id="BPTk4Z4PryNuK3dZAGBa-34" value="" style="endArrow=none;html=1;rounded=0;exitX=0.5;exitY=0;exitDx=0;exitDy=0;entryX=0.75;entryY=1;entryDx=0;entryDy=0;" edge="1" parent="1" source="BPTk4Z4PryNuK3dZAGBa-32" target="BPTk4Z4PryNuK3dZAGBa-27">
          <mxGeometry width="50" height="50" relative="1" as="geometry">
            <mxPoint x="370" y="470" as="sourcePoint" />
            <mxPoint x="420" y="420" as="targetPoint" />
          </mxGeometry>
        </mxCell>
        <mxCell id="BPTk4Z4PryNuK3dZAGBa-35" value="" style="endArrow=none;html=1;rounded=0;entryX=0;entryY=1;entryDx=0;entryDy=0;" edge="1" parent="1" source="BPTk4Z4PryNuK3dZAGBa-31" target="BPTk4Z4PryNuK3dZAGBa-27">
          <mxGeometry width="50" height="50" relative="1" as="geometry">
            <mxPoint x="279" y="480" as="sourcePoint" />
            <mxPoint x="266" y="430" as="targetPoint" />
          </mxGeometry>
        </mxCell>
        <mxCell id="BPTk4Z4PryNuK3dZAGBa-36" value="" style="endArrow=none;html=1;rounded=0;entryX=0;entryY=0.5;entryDx=0;entryDy=0;exitX=1;exitY=0.5;exitDx=0;exitDy=0;" edge="1" parent="1" source="BPTk4Z4PryNuK3dZAGBa-29" target="BPTk4Z4PryNuK3dZAGBa-27">
          <mxGeometry width="50" height="50" relative="1" as="geometry">
            <mxPoint x="175" y="461" as="sourcePoint" />
            <mxPoint x="206" y="430" as="targetPoint" />
          </mxGeometry>
        </mxCell>
        <mxCell id="BPTk4Z4PryNuK3dZAGBa-37" value="" style="endArrow=none;html=1;rounded=0;entryX=0;entryY=0;entryDx=0;entryDy=0;exitX=1;exitY=1;exitDx=0;exitDy=0;" edge="1" parent="1" source="BPTk4Z4PryNuK3dZAGBa-30" target="BPTk4Z4PryNuK3dZAGBa-27">
          <mxGeometry width="50" height="50" relative="1" as="geometry">
            <mxPoint x="154" y="400" as="sourcePoint" />
            <mxPoint x="206" y="405" as="targetPoint" />
          </mxGeometry>
        </mxCell>
        <mxCell id="BPTk4Z4PryNuK3dZAGBa-38" value="" style="endArrow=none;html=1;rounded=0;entryX=0.5;entryY=0;entryDx=0;entryDy=0;exitX=0.5;exitY=1;exitDx=0;exitDy=0;" edge="1" parent="1" source="BPTk4Z4PryNuK3dZAGBa-28" target="BPTk4Z4PryNuK3dZAGBa-27">
          <mxGeometry width="50" height="50" relative="1" as="geometry">
            <mxPoint x="240" y="330" as="sourcePoint" />
            <mxPoint x="206" y="380" as="targetPoint" />
          </mxGeometry>
        </mxCell>
        <mxCell id="BPTk4Z4PryNuK3dZAGBa-40" style="edgeStyle=orthogonalEdgeStyle;rounded=0;orthogonalLoop=1;jettySize=auto;html=1;exitX=1;exitY=0.5;exitDx=0;exitDy=0;entryX=0;entryY=0.5;entryDx=0;entryDy=0;endArrow=none;endFill=0;" edge="1" parent="1" source="BPTk4Z4PryNuK3dZAGBa-39" target="lveurod9TtLe9vHSPx2q-1">
          <mxGeometry relative="1" as="geometry" />
        </mxCell>
        <mxCell id="BPTk4Z4PryNuK3dZAGBa-39" value="has a" style="rhombus;whiteSpace=wrap;html=1;" vertex="1" parent="1">
          <mxGeometry x="357.5" y="375" width="60" height="60" as="geometry" />
        </mxCell>
        <mxCell id="BPTk4Z4PryNuK3dZAGBa-42" value="" style="endArrow=none;html=1;rounded=0;entryX=0;entryY=0.5;entryDx=0;entryDy=0;exitX=1;exitY=0.75;exitDx=0;exitDy=0;" edge="1" parent="1" source="BPTk4Z4PryNuK3dZAGBa-27" target="BPTk4Z4PryNuK3dZAGBa-39">
          <mxGeometry width="50" height="50" relative="1" as="geometry">
            <mxPoint x="330" y="470" as="sourcePoint" />
            <mxPoint x="380" y="420" as="targetPoint" />
          </mxGeometry>
        </mxCell>
        <mxCell id="BPTk4Z4PryNuK3dZAGBa-43" value="best_role" style="ellipse;whiteSpace=wrap;html=1;" vertex="1" parent="1">
          <mxGeometry x="398.5" y="435" width="60" height="40" as="geometry" />
        </mxCell>
      </root>
    </mxGraphModel>
  </diagram>
</mxfile>
